<svg width="504" height="290" viewBox="0 0 504 290" fill="none" xmlns="http://www.w3.org/2000/svg">
<g clip-path="url(#clip0_1_48)">
<path d="M43.8023 147.806H75.7546V238.005H90.0034V257.282H54.0302V254.467C51.4908 255.781 48.8928 256.813 46.2364 257.562C43.5799 258.312 40.886 258.688 38.1594 258.688C32.5633 258.688 27.4259 257.691 22.7473 255.697C18.0686 253.703 14.0477 250.972 10.6868 247.5C7.32348 244.029 4.70214 239.962 2.82273 235.292C0.940976 230.625 0.00244141 225.618 0.00244141 220.271C0.00244141 214.925 0.929273 209.94 2.78762 205.32C4.64362 200.7 7.2322 196.677 10.5463 193.255C13.8605 189.832 17.8346 187.133 22.4664 185.163C27.0982 183.192 32.1888 182.207 37.7381 182.207C40.7948 182.207 43.6642 182.501 46.344 183.087C49.0239 183.673 51.5867 184.507 54.0325 185.585V167.081H43.8046V147.804L43.8023 147.806ZM39.3577 239.271C42.4612 239.177 45.2698 238.381 47.7858 236.878C50.3018 235.376 52.3825 233.406 54.0279 230.966V209.506C52.3802 207.02 50.255 205.087 47.6454 203.702C45.0357 202.32 42.2716 201.65 39.3577 201.697C36.9119 201.65 34.6206 202.073 32.4814 202.965C30.3421 203.856 28.4604 205.122 26.8384 206.763C25.2165 208.407 23.9339 210.375 22.993 212.674C22.0521 214.974 21.5817 217.577 21.5817 220.484C21.5817 223.39 22.0521 225.937 22.993 228.258C23.9339 230.581 25.2141 232.549 26.8384 234.169C28.4604 235.787 30.3421 237.018 32.4814 237.863C34.6206 238.708 36.9119 239.177 39.3577 239.271Z" fill="white"/>
<path d="M99.314 184.392H132.114V238.005H142.271V257.282H99.3163V238.005H110.319V203.67H99.3163V184.392H99.314ZM109.188 160.892C109.188 159.157 109.507 157.528 110.141 156.003C110.775 154.479 111.658 153.155 112.786 152.027C113.914 150.9 115.243 150.01 116.772 149.354C118.3 148.698 119.957 148.369 121.745 148.369C123.437 148.369 125.036 148.698 126.541 149.354C128.046 150.012 129.361 150.902 130.492 152.027C131.622 153.153 132.514 154.479 133.171 156.003C133.829 157.528 134.159 159.157 134.159 160.892C134.159 162.627 133.829 164.258 133.171 165.783C132.511 167.307 131.62 168.631 130.492 169.759C129.363 170.887 128.046 171.776 126.541 172.432C125.036 173.09 123.437 173.417 121.745 173.417C119.957 173.417 118.3 173.09 116.772 172.432C115.243 171.776 113.916 170.884 112.786 169.759C111.655 168.634 110.775 167.307 110.141 165.783C109.507 164.258 109.188 162.629 109.188 160.892Z" fill="white"/>
<path d="M209.277 253.484C206.644 254.985 204.011 256.064 201.378 256.72C198.745 257.376 196.062 257.705 193.336 257.705C187.693 257.705 182.497 256.745 177.748 254.822C172.999 252.898 168.896 250.236 165.44 246.835C161.983 243.433 159.291 239.413 157.363 234.769C155.434 230.126 154.47 225.083 154.47 219.641C154.47 214.528 155.397 209.709 157.255 205.182C159.111 200.656 161.709 196.694 165.049 193.292C168.386 189.893 172.384 187.206 177.039 185.235C181.694 183.265 186.75 182.256 192.203 182.21C195.541 182.256 198.609 182.609 201.408 183.265C204.205 183.923 206.826 184.813 209.272 185.938V184.39H230.643V254.257C230.643 260.401 229.585 265.713 227.469 270.193C225.354 274.671 222.519 278.378 218.969 281.31C215.418 284.24 211.292 286.423 206.59 287.854C201.888 289.286 196.95 290 191.777 290C185.383 290 179.468 289.131 174.039 287.397C168.609 285.66 163.775 283.316 159.544 280.36L168.361 264.741C171.604 266.805 175.132 268.435 178.942 269.633C182.75 270.828 186.984 271.426 191.639 271.426C194.178 271.426 196.517 271.143 198.658 270.58C200.797 270.018 202.653 269.068 204.231 267.73C205.806 266.392 207.039 264.599 207.933 262.348C208.825 260.098 209.275 257.259 209.275 253.834V253.481L209.277 253.484ZM194.04 238.215C197.331 238.215 200.306 237.382 202.962 235.717C205.619 234.053 207.723 231.86 209.275 229.138L209.415 211.409C207.816 208.453 205.628 206.109 202.855 204.372C200.079 202.638 197.071 201.746 193.825 201.699C191.52 201.746 189.263 202.203 187.054 203.072C184.842 203.94 182.928 205.171 181.306 206.765C179.684 208.36 178.401 210.249 177.46 212.429C176.519 214.61 176.049 217.038 176.049 219.711C176.049 222.526 176.519 225.083 177.46 227.38C178.401 229.68 179.67 231.625 181.268 233.219C182.867 234.814 184.76 236.046 186.946 236.913C189.132 237.781 191.496 238.215 194.036 238.215H194.04Z" fill="white"/>
<path d="M246.378 184.392H279.178V238.005H289.335V257.282H246.38V238.005H257.383V203.67H246.38V184.392H246.378ZM256.253 160.892C256.253 159.157 256.571 157.528 257.205 156.003C257.84 154.479 258.722 153.155 259.85 152.027C260.978 150.9 262.308 150.01 263.836 149.354C265.364 148.698 267.021 148.369 268.809 148.369C270.502 148.369 272.1 148.698 273.605 149.354C275.11 150.012 276.425 150.902 277.556 152.027C278.686 153.153 279.578 154.479 280.236 156.003C280.893 157.528 281.223 159.157 281.223 160.892C281.223 162.627 280.893 164.258 280.236 165.783C279.576 167.307 278.684 168.631 277.556 169.759C276.428 170.887 275.11 171.776 273.605 172.432C272.1 173.09 270.502 173.417 268.809 173.417C267.021 173.417 265.364 173.09 263.836 172.432C262.308 171.776 260.98 170.884 259.85 169.759C258.72 168.634 257.84 167.307 257.205 165.783C256.571 164.258 256.253 162.629 256.253 160.892Z" fill="white"/>
<path d="M329.681 184.392H344.281V202.827H329.538L329.398 233.644C329.398 235.428 329.538 236.871 329.821 237.972C330.105 239.074 330.514 239.955 331.055 240.611C331.595 241.269 332.241 241.713 332.995 241.948C333.746 242.184 334.617 242.301 335.605 242.301C337.39 242.301 338.966 242.126 340.33 241.773C341.692 241.421 343.057 241.012 344.421 240.543L347.455 254.121C345.056 255.622 342.387 256.82 339.448 257.71C336.508 258.599 333.016 259.047 328.974 259.047C326.105 259.047 323.366 258.555 320.757 257.569C318.147 256.584 315.856 255.095 313.88 253.101C311.905 251.107 310.33 248.609 309.155 245.607C307.98 242.607 307.414 239.112 307.463 235.124L307.673 202.829H297.165V184.395H307.744L307.884 166.946L329.821 156.533L329.681 184.395V184.392Z" fill="white"/>
<path d="M403.46 253.344C401.812 254.376 400.31 255.256 398.945 255.982C397.581 256.71 396.218 257.294 394.854 257.74C393.489 258.186 392.078 258.515 390.622 258.725C389.164 258.935 387.566 259.043 385.827 259.043C381.455 259.043 377.539 258.445 374.082 257.25C370.625 256.054 367.709 254.413 365.336 252.324C362.96 250.236 361.139 247.776 359.868 244.937C358.6 242.1 357.963 239.016 357.963 235.685C357.963 232.353 358.609 229.187 359.903 226.327C361.195 223.467 363.065 221.016 365.511 218.975C367.955 216.935 370.953 215.34 374.503 214.192C378.054 213.043 382.11 212.469 386.672 212.469C390.009 212.469 393.054 212.644 395.806 212.996C398.557 213.349 401.108 213.783 403.46 214.299V212.049C403.46 210.218 403.106 208.635 402.402 207.3C401.697 205.965 400.71 204.863 399.439 203.992C398.17 203.126 396.64 202.491 394.854 202.091C393.066 201.694 391.116 201.494 389 201.494C384.579 201.494 380.689 201.928 377.326 202.796C373.963 203.665 370.73 204.919 367.627 206.56L360.856 192.909C365.652 189.627 370.672 187.117 375.915 185.38C381.157 183.645 386.718 182.777 392.595 182.777C397.157 182.777 401.377 183.281 405.257 184.29C409.136 185.298 412.464 186.94 415.237 189.216C418.011 191.492 420.185 194.457 421.762 198.115C423.338 201.774 424.126 206.231 424.126 211.484V238.01H433.931V257.287H403.46V253.346V253.344ZM387.378 242.439C390.716 242.439 393.749 241.899 396.478 240.821C399.205 239.742 401.531 238.428 403.462 236.88V227.593H386.533C385.452 227.593 384.392 227.758 383.36 228.085C382.325 228.414 381.396 228.884 380.575 229.493C379.751 230.102 379.093 230.854 378.599 231.744C378.105 232.635 377.86 233.667 377.86 234.839C377.86 236.997 378.646 238.804 380.224 240.256C381.799 241.71 384.184 242.436 387.383 242.436L387.378 242.439Z" fill="black"/>
<path d="M403.46 253.344C401.812 254.376 400.31 255.256 398.945 255.982C397.581 256.71 396.218 257.294 394.854 257.74C393.489 258.186 392.078 258.515 390.622 258.725C389.164 258.935 387.566 259.043 385.827 259.043C381.455 259.043 377.539 258.445 374.082 257.25C370.625 256.054 367.709 254.413 365.336 252.324C362.96 250.236 361.139 247.776 359.868 244.937C358.6 242.1 357.963 239.016 357.963 235.685C357.963 232.353 358.609 229.187 359.903 226.327C361.195 223.467 363.065 221.016 365.511 218.975C367.955 216.935 370.953 215.34 374.503 214.192C378.054 213.043 382.11 212.469 386.672 212.469C390.009 212.469 393.054 212.644 395.806 212.996C398.557 213.349 401.108 213.783 403.46 214.299V212.049C403.46 210.218 403.106 208.635 402.402 207.3C401.697 205.965 400.71 204.863 399.439 203.992C398.17 203.126 396.64 202.491 394.854 202.091C393.066 201.694 391.116 201.494 389 201.494C384.579 201.494 380.689 201.928 377.326 202.796C373.963 203.665 370.73 204.919 367.627 206.56L360.856 192.909C365.652 189.627 370.672 187.117 375.915 185.38C381.157 183.645 386.718 182.777 392.595 182.777C397.157 182.777 401.377 183.281 405.257 184.29C409.136 185.298 412.464 186.94 415.237 189.216C418.011 191.492 420.185 194.457 421.762 198.115C423.338 201.774 424.126 206.231 424.126 211.484V238.01H433.931V257.287H403.46V253.346V253.344ZM387.378 242.439C390.716 242.439 393.749 241.899 396.478 240.821C399.205 239.742 401.531 238.428 403.462 236.88V227.593H386.533C385.452 227.593 384.392 227.758 383.36 228.085C382.325 228.414 381.396 228.884 380.575 229.493C379.751 230.102 379.093 230.854 378.599 231.744C378.105 232.635 377.86 233.667 377.86 234.839C377.86 236.997 378.646 238.804 380.224 240.256C381.799 241.71 384.184 242.436 387.383 242.436L387.378 242.439Z" fill="white"/>
<path d="M447.332 157.549H480.272V238.005H491.558V257.282H447.332V238.005H458.618V176.826H447.332V157.549Z" fill="white"/>
<path d="M45.1012 87.4791H68.609V91.9312C70.7248 90.2503 73.1051 88.9125 75.7498 87.925C78.3946 86.9351 81.1212 86.4401 83.9322 86.4401C87.8337 86.4401 91.1806 87.1242 93.9752 88.4923C96.7697 89.8604 98.9604 91.9476 100.547 94.7515C101.638 93.5328 102.869 92.4192 104.243 91.4129C105.614 90.4067 107.077 89.5335 108.631 88.7911C110.185 88.0487 111.812 87.4721 113.516 87.0588C115.217 86.6456 116.963 86.4401 118.749 86.4401C125.031 86.4401 129.859 88.1724 133.23 91.6347C136.602 95.097 138.288 100.161 138.288 106.822V125.174H145.578V138.729H122.12V109.343C122.12 106.441 121.368 104.165 119.863 102.516C118.358 100.868 116.268 100.042 113.588 100.042C111.737 100.042 109.993 100.478 108.355 101.354C106.719 102.227 105.09 103.738 103.471 105.881C103.503 106.245 103.52 106.616 103.52 106.994V125.174H110.958V138.729H87.4991V109.245C87.4991 107.86 87.2837 106.607 86.8531 105.486C86.4224 104.366 85.8279 103.408 85.0673 102.617C84.3066 101.825 83.4055 101.207 82.364 100.761C81.3225 100.315 80.1733 100.077 78.9165 100.044C77.2618 100.011 75.5509 100.373 73.7838 101.132C72.0144 101.891 70.3199 103.292 68.7003 105.337V125.174H76.9341V138.729H44.9958V125.174H52.6329V101.032H45.0941V87.4767L45.1012 87.4791Z" fill="white"/>
<path d="M183.817 87.4791H208.118V125.177H214.318V138.731H192.547V134.377C190.794 135.96 188.744 137.181 186.396 138.038C184.049 138.895 181.338 139.324 178.263 139.324C175.419 139.324 172.742 138.879 170.228 137.989C167.714 137.1 165.524 135.755 163.656 133.957C161.788 132.159 160.316 129.909 159.242 127.205C158.168 124.502 157.629 121.317 157.629 117.657V101.034H150.933V87.4791H173.648V117.657C173.648 121.086 174.523 123.652 176.276 125.349C178.029 127.049 180.309 127.896 183.119 127.896C185.104 127.896 186.904 127.287 188.526 126.066C190.146 124.847 191.321 123.197 192.048 121.119V101.034H183.815V87.4791H183.817Z" fill="white"/>
<path d="M221.854 87.4791H244.918V125.177H252.058V138.731H221.854V125.177H229.592V101.034H221.854V87.4791Z" fill="white"/>
<path d="M300.315 112.906C300.315 109.18 300.991 105.682 302.349 102.418C303.704 99.1546 305.588 96.3017 308.003 93.8596C310.416 91.4199 313.293 89.4892 316.633 88.0721C319.972 86.6549 323.642 85.9452 327.642 85.9452C331.642 85.9452 335.321 86.6549 338.678 88.0721C342.034 89.4915 344.917 91.4199 347.333 93.8596C349.746 96.3017 351.623 99.1523 352.962 102.418C354.3 105.685 354.97 109.18 354.97 112.906C354.97 116.632 354.317 120.136 353.011 123.419C351.705 126.701 349.853 129.57 347.457 132.026C345.06 134.485 342.184 136.423 338.827 137.84C335.471 139.257 331.743 139.967 327.645 139.967C323.546 139.967 319.766 139.257 316.41 137.84C313.054 136.423 310.187 134.492 307.807 132.052C305.426 129.612 303.582 126.75 302.276 123.47C300.97 120.187 300.317 116.667 300.317 112.908L300.315 112.906ZM315.144 112.906C315.144 114.853 315.474 116.641 316.136 118.273C316.796 119.905 317.7 121.315 318.84 122.503C319.979 123.692 321.302 124.614 322.807 125.275C324.312 125.935 325.922 126.264 327.642 126.264C329.362 126.264 331.022 125.942 332.527 125.3C334.032 124.656 335.338 123.741 336.445 122.555C337.552 121.366 338.42 119.956 339.05 118.324C339.677 116.692 339.993 114.885 339.993 112.908C339.993 110.931 339.679 109.016 339.05 107.368C338.42 105.72 337.554 104.319 336.445 103.163C335.338 102.01 334.032 101.127 332.527 100.516C331.022 99.9064 329.393 99.6169 327.642 99.6496C325.922 99.6169 324.312 99.9064 322.807 100.516C321.302 101.127 319.979 102.008 318.84 103.163C317.7 104.319 316.799 105.72 316.136 107.368C315.474 109.018 315.144 110.865 315.144 112.908V112.906Z" fill="white"/>
<path d="M290.791 126.956C289.832 127.285 288.874 127.574 287.915 127.822C286.955 128.069 285.848 128.193 284.591 128.193C283.896 128.193 283.285 128.111 282.756 127.945C282.228 127.78 281.771 127.467 281.392 127.005C281.01 126.542 280.723 125.926 280.524 125.149C280.325 124.373 280.226 123.36 280.226 122.106L280.325 100.439H290.691V87.4767H280.425L280.484 76.086C278.551 77.2627 276.727 78.2969 275.068 79.149C273.158 80.1319 271.201 80.9584 269.25 81.6074C267.901 82.0557 266.49 82.4176 265.039 82.707L265.002 87.4767H257.563V100.439H264.952L264.803 123.145C264.77 125.949 265.165 128.405 265.994 130.516C266.82 132.626 267.927 134.382 269.317 135.785C270.705 137.188 272.318 138.234 274.153 138.928C275.988 139.621 277.914 139.967 279.932 139.967C282.775 139.967 285.23 139.654 287.297 139.026C289.364 138.4 291.241 137.559 292.926 136.502L290.794 126.953L290.791 126.956Z" fill="white"/>
<path d="M419.7 84.5654C419.574 85.8355 419.375 87.3016 419.136 88.5717C418.544 91.7094 417.428 95.1857 415.574 98.006C413.746 100.784 413.421 99.6846 412.793 103.415H404.763L409.079 72.7848C410.27 72.7755 411.565 72.5794 412.655 72.549C415.405 72.4696 416.913 72.1381 418.389 74.4541C420.089 77.1156 420.028 81.3039 419.702 84.5654H419.7ZM409.517 73.0206H409.28L405.131 102.472H405.367L409.517 73.0206Z" fill="#990984"/>
<path d="M412.262 107.183C412.155 108.045 412.009 108.913 411.897 109.775H460.202C461.199 109.775 460.954 111.325 460.965 111.895L459.769 120.377C457.354 120.524 454.819 120.071 452.413 120.612H452.177L453.141 113.779L404.822 113.793C404.319 113.835 403.734 113.277 403.67 112.838C404.26 111.409 404.438 109.513 404.588 108.005C404.616 107.718 404.89 107.13 404.471 107.183C404.384 108.89 403.722 110.947 403.705 112.602C403.401 110.928 404.129 108.932 404.232 107.183C404.45 107.183 405.025 106.938 405.552 106.938C407.759 106.931 410.189 106.773 412.262 107.183Z" fill="#960980"/>
<path d="M474.814 132.631C474.666 133.882 474.439 135.148 474.283 136.402H493.416C493.379 137.02 493.393 136.791 492.995 136.864C490.184 137.375 487.272 138.085 484.471 138.493C480.864 139.016 477.18 138.96 473.557 139.808C472.799 139.985 471.596 140.244 471.053 140.877H475.305L475.106 142.292H468.848C465.939 142.292 460.078 145.222 456.654 144.176H456.418C456.902 140.732 457.221 137.214 458.115 133.808C458.168 133.614 458.063 133.6 457.911 133.572L457.944 133.336C458 133.107 457.977 132.851 458.044 132.629C458.129 132.344 458.171 132.344 458.346 132.157C458.381 132.559 459.051 132.379 459.376 132.393C464.064 132.58 468.864 132.241 473.562 132.384C474.009 132.398 474.458 132.363 474.814 132.629V132.631Z" fill="#550F7B"/>
<path d="M418.048 56.0548C418.371 56.2439 419.139 56.7038 419.08 57.1147L417.336 69.4836C414.741 69.4976 412.138 69.465 409.543 69.4836C409.641 66.5653 410.919 62.7645 410.87 59.956C410.851 58.819 410.348 58.9917 409.653 58.6462C409.608 58.6229 409.594 58.3451 409.458 58.2984C408.082 57.8221 400.321 58.5108 400.033 58.177C400.206 57.5676 400.038 56.0758 400.749 55.8517L418.048 56.0548ZM411.342 60.061H411.106L409.812 69.2502H410.048L411.342 60.061Z" fill="#990984"/>
<path d="M368.952 55.819C369.141 56.2088 369.815 56.0548 370.213 56.0594C377.876 56.1411 385.576 56.0548 393.248 56.0548H393.485C394.175 56.6548 399.38 56.0408 399.593 56.2882L399.329 58.1723L400.064 56.2882L399.764 58.4081C399.448 58.4081 399.135 58.4081 398.819 58.4081L374.433 58.205C374.115 58.2843 374.054 58.4921 373.967 58.7606C373.354 60.64 373.56 63.4813 373.022 65.475H366.171L366.632 63.9529L367.702 56.2859C368.116 55.917 368.409 55.7769 368.949 55.8143L368.952 55.819Z" fill="#FDB017"/>
<path d="M404.763 103.415H412.794C412.585 104.662 412.419 105.937 412.262 107.186C410.189 106.775 407.759 106.934 405.552 106.941C405.026 106.941 404.45 107.186 404.232 107.186C403.525 107.186 402.334 106.941 401.559 106.938C399.163 106.931 396.717 107.095 394.334 107.088C394.138 107.088 393.864 107.001 393.887 106.831L394.369 103.415H404.763Z" fill="#550F7B"/>
<path d="M363.243 82.9148L377.113 83.3864C377.148 83.6316 377.08 83.6105 377.08 83.6222C376.474 84.0168 376.687 86.0339 376.481 86.216C376.256 86.4121 371.8 86.0969 370.918 86.209C370.726 86.2324 370.562 86.2183 370.541 86.4518C370.461 86.4518 370.384 86.4518 370.304 86.4518C370.225 86.4518 370.148 86.4518 370.068 86.4518L357.582 86.2183C357.778 85.2821 357.656 84.2572 358.218 83.3888L363.196 83.272C363.231 83.0245 358.731 83.1296 358.251 83.1553C358.092 83.1646 357.935 83.1506 357.778 83.1553C359.51 82.721 361.49 82.9218 363.243 82.9195V82.9148Z" fill="#570F7C"/>
<path d="M459.205 124.385L458.608 128.627C456.193 128.774 453.658 128.321 451.252 128.863H451.016L451.645 124.385H459.205Z" fill="#990984"/>
<path d="M393.281 55.819L393.545 53.9326H409.472C409.812 53.9816 409.224 55.6836 409.341 55.819C409.608 56.1271 416.819 55.6112 418.083 55.819L418.05 56.0548L400.752 55.8516C400.04 56.0734 400.209 57.5676 400.035 58.177C400.323 58.5108 408.087 57.8221 409.461 58.2984C409.596 58.345 409.61 58.6252 409.655 58.6462C406.483 58.2143 403.05 58.4128 399.766 58.4104L400.066 56.2906C400.071 56.2135 400.096 56.1318 400.099 56.0548C400.101 55.9777 400.127 55.896 400.131 55.819C399.942 55.4291 399.268 55.5832 398.87 55.5785C397.166 55.5598 395.2 55.4034 393.517 55.819C393.438 55.819 393.36 55.819 393.281 55.819Z" fill="#570F7C"/>
<path d="M418.081 55.819C418.469 55.882 419.377 56.6688 419.349 56.8789L417.507 69.9552L413.051 69.7194L412.653 72.549C411.562 72.5794 410.268 72.7755 409.077 72.7848C407.74 72.7942 406.397 72.7778 405.061 72.7848L405.526 69.486C406.863 69.479 408.206 69.4953 409.543 69.486C412.14 69.4673 414.741 69.5 417.336 69.486L419.08 57.117C419.139 56.7061 418.373 56.2462 418.048 56.0571L418.081 55.8213V55.819Z" fill="#7A0A7A"/>
<path d="M365.904 65.7155C365.984 65.7155 366.061 65.7155 366.141 65.7155C368.42 65.7202 370.712 65.7085 372.991 65.7155C373.071 65.7155 373.148 65.7155 373.228 65.7155C375.428 65.7225 377.642 65.7109 379.842 65.7155L379.444 68.5451C379.17 68.7856 373.93 68.2649 373.066 68.5451C372.376 68.7692 371.337 80.9117 370.871 82.4456C370.84 82.2121 370.686 82.1257 370.73 81.6495C371.112 77.4308 372.142 73.0159 372.561 68.7809C372.371 68.391 371.697 68.5451 371.299 68.5404C369.452 68.5171 367.592 68.5451 365.745 68.5451C365.666 68.5451 365.588 68.5451 365.509 68.5451C360.395 68.5428 355.269 68.5451 350.153 68.5451L350.53 65.8533C355.667 65.6105 360.795 65.7085 365.907 65.7178L365.904 65.7155ZM379.594 65.8859L350.747 65.9466L350.417 68.321L379.264 68.2603L379.594 65.8859Z" fill="#FC4E0C"/>
<path d="M363.217 86.4495C365.399 86.9911 367.971 86.5382 370.269 86.6853L369.937 89.0409H369.7C369.511 88.6511 368.837 88.8051 368.439 88.8005C366.656 88.7818 364.615 88.6254 362.85 89.0409H362.614C362.681 88.1818 363.058 87.2386 362.742 86.4495C362.899 86.4495 363.058 86.4495 363.215 86.4495H363.217Z" fill="#FDB015"/>
<path d="M381.754 90.6915C380.928 90.6121 381.454 90.8876 381.414 91.2962C381.326 92.1834 381.328 93.4324 380.783 94.2262C380.703 94.2262 380.626 94.2262 380.546 94.2262C380.607 93.8433 379.816 94.0021 379.516 93.9904C378.774 93.9577 378.011 94.0137 377.269 93.9904L377.55 91.1585L377 94.2238C376.523 93.6705 377.328 91.3312 377.295 90.4534C378.515 90.5748 380.031 90.297 381.209 90.4441C381.466 90.4767 381.686 90.3413 381.752 90.6892L381.754 90.6915Z" fill="#570F7C"/>
<path d="M398.821 58.4128C393.943 58.4081 389.056 58.3847 384.176 58.4128C382.29 58.4244 380.282 58.6135 378.37 58.5902C377.422 58.5785 375.355 58.1419 374.494 58.4128C374.129 58.5272 374.236 58.7279 374.166 58.9894C373.64 60.9739 373.743 63.4416 373.263 65.4821L373.23 65.7178C373.15 65.7178 373.073 65.7178 372.994 65.7178L373.026 65.4821C373.565 63.4859 373.359 60.647 373.972 58.7676C374.059 58.4991 374.119 58.2914 374.438 58.212L398.823 58.4151L398.821 58.4128Z" fill="#FD9411"/>
<path d="M365.944 68.7786L363.749 82.679H363.512L365.504 68.5428C365.584 68.5428 365.661 68.5428 365.74 68.5428C365.75 68.6548 365.834 68.7622 365.944 68.7786Z" fill="#FD9411"/>
<path d="M366.585 112.84L369.574 91.6347L369.607 91.3989L369.64 91.1631L369.672 90.9273L369.871 89.5125L369.904 89.2767L369.937 89.0409L370.269 86.6853L370.302 86.4495C370.381 86.4495 370.459 86.4495 370.538 86.4495L366.585 112.838V112.84Z" fill="#F8CC8E"/>
<path d="M393.281 55.819L393.248 56.0548C385.576 56.0548 377.876 56.1388 370.213 56.0594C369.815 56.0548 369.141 56.2089 368.951 55.819C377.052 55.8493 385.18 55.7793 393.281 55.819Z" fill="#FD9411"/>
<path d="M366.173 65.4797L366.141 65.7155C366.061 65.7155 365.984 65.7155 365.904 65.7155C366.492 63.0423 366.431 59.9653 367.077 57.3458C367.215 56.7902 367.262 56.6828 367.704 56.2906L366.635 63.9575L366.173 65.4797Z" fill="#FD9411"/>
<path d="M358.251 83.1506L358.218 83.3864C357.659 84.2549 357.778 85.2798 357.582 86.216L370.068 86.4495C367.788 86.4565 365.497 86.4565 363.217 86.4495C363.061 86.4495 362.901 86.4495 362.745 86.4495C360.938 86.4425 359.119 86.4542 357.31 86.4495L357.776 83.1506C357.933 83.146 358.089 83.16 358.249 83.1506H358.251Z" fill="#19008C"/>
<path d="M370.803 82.9148C370.883 82.9148 370.96 82.9148 371.039 82.9148C371.119 82.9148 371.196 82.9148 371.276 82.9148C372.743 83.3094 374.894 83.3094 376.472 82.9148C376.694 82.9288 376.94 82.8495 377.143 82.9475C377.232 83.0829 377.099 83.2744 377.113 83.3864L363.243 82.9148C363.323 82.9148 363.4 82.9148 363.48 82.9148C365.916 82.9148 368.366 82.9008 370.803 82.9148Z" fill="#19008C"/>
<path d="M398.821 58.4128C399.137 58.4128 399.45 58.4128 399.766 58.4128H384.176C389.059 58.3847 393.943 58.4081 398.821 58.4128Z" fill="#F8CC8E"/>
<path d="M371.039 82.9148C370.96 82.9148 370.882 82.9148 370.803 82.9148L370.835 82.679C370.831 82.6043 370.878 82.5156 370.868 82.4432C371.334 80.907 372.371 68.7669 373.064 68.5428L371.039 82.9148Z" fill="#F8CC8E"/>
<path d="M377.08 83.6222C377.092 84.5514 377.113 85.5016 376.919 86.4518C374.796 86.4541 372.664 86.4448 370.541 86.4518C370.562 86.2207 370.726 86.2347 370.918 86.209C371.8 86.0993 376.256 86.4121 376.481 86.216C376.689 86.0339 376.476 84.0191 377.08 83.6222Z" fill="#19008C"/>
<path d="M459.973 120.615H459.737L459.769 120.379L460.965 111.897C460.968 112.044 461.136 112.252 461.106 112.693C460.94 115.238 460.174 118.042 459.973 120.615Z" fill="#F8CC8E"/>
<path d="M369.672 90.9273L369.64 91.1631H362.08C362.379 90.7733 363.009 90.9273 363.409 90.9227C365.499 90.9017 367.585 90.9483 369.672 90.9273Z" fill="#19008C"/>
<path d="M362.852 89.0409H369.939L369.906 89.2767H362.819C362.663 89.216 362.468 89.2324 362.379 89.0409H362.852Z" fill="#FC6913"/>
<path d="M370.836 82.6814L370.803 82.9172C368.369 82.9032 365.918 82.9172 363.479 82.9172L363.512 82.6814H370.836Z" fill="#FCED04"/>
<path d="M455.421 151.245L456.418 144.176H456.654C456.209 146.272 456.226 148.614 455.751 150.68C455.671 151.03 455.439 151.189 455.421 151.245Z" fill="#F8CC8E"/>
<path d="M373.258 65.4797C373.738 63.4393 373.637 60.9715 374.161 58.9871C374.232 58.7256 374.124 58.5272 374.489 58.4104C374.016 60.7241 374.117 63.2268 373.258 65.4797Z" fill="#F8CC8E"/>
<path d="M403.67 112.84C403.661 112.775 403.703 112.686 403.703 112.605C403.719 110.949 404.384 108.892 404.468 107.186C404.887 107.13 404.616 107.72 404.585 108.008C404.436 109.513 404.258 111.411 403.668 112.84H403.67Z" fill="#7A0A7A"/>
<path d="M376.472 82.9148C374.894 83.3094 372.743 83.3094 371.276 82.9148C372.97 82.9265 374.817 82.8098 376.472 82.9148Z" fill="#570F7C"/>
<path d="M458.812 128.861C458.732 128.861 458.655 128.861 458.576 128.861L458.608 128.625L459.205 124.383H459.442C459.112 125.795 459.187 127.492 458.812 128.861Z" fill="#F8CC8E"/>
<path d="M419.136 88.5717C419.375 87.304 419.574 85.8378 419.7 84.5654C419.941 85.6744 419.686 87.4767 419.136 88.5717Z" fill="#F8CC8E"/>
<path d="M381.754 90.6915C381.798 90.9297 381.419 93.5048 381.307 93.8713C381.026 94.7772 380.832 94.2238 380.785 94.2238C381.328 93.4301 381.328 92.1834 381.417 91.2939C381.457 90.8853 380.93 90.6098 381.756 90.6892L381.754 90.6915Z" fill="#19008C"/>
<path d="M380.546 94.2262L380.394 94.4596C379.589 94.3196 377.473 94.7702 377.003 94.2262C378.18 94.2379 379.371 94.2122 380.546 94.2262Z" fill="#F8CC8E"/>
<path d="M409.517 73.0206L405.367 102.472H405.131L409.28 73.0206H409.517Z" fill="#7A0A7A"/>
<path d="M485.957 120.615L485.426 124.385H441.49L442.022 120.615H485.957Z" fill="#550F7B"/>
<path d="M459.769 120.379L459.737 120.615H452.413C454.817 120.075 457.354 120.526 459.769 120.379Z" fill="#990984"/>
<path d="M369.607 91.3989L369.574 91.6347H369.338C367.395 91.546 365.366 91.7561 363.433 91.6347C363.107 91.6137 362.567 91.7701 362.52 91.3989H369.607Z" fill="#FCED04"/>
<path d="M458.812 128.861C459.388 128.849 460.275 128.625 460.853 128.625H466.995C467.29 128.625 467.29 129.507 467.184 129.804L487.769 129.566L487.401 132.159C483.495 132.437 479.21 131.786 475.355 132.159C475.226 132.171 475.006 132.351 474.849 132.395C474.856 132.318 474.887 132.232 474.882 132.159C474.877 132.087 474.915 132.001 474.915 131.924H458.379C458.342 131.935 458.386 132.115 458.347 132.159C458.169 132.346 458.129 132.346 458.045 132.631C457.757 133.079 457.654 133.086 457.172 133.119C455.042 133.266 452.746 132.78 450.623 133.338C450.464 133.366 450.382 133.401 450.354 133.574C443.152 133.544 435.934 133.588 428.728 133.584C428.47 133.551 428.25 133.686 428.185 133.338L428.835 132.038C429.13 131.191 428.515 130.233 429.348 129.559C435.958 129.468 442.539 129.708 449.156 129.577C449.806 129.563 450.455 129.351 451.189 129.332C453.34 129.278 456.397 129.631 458.405 129.337C458.672 129.297 458.649 129.316 458.782 129.096C458.812 129.045 458.791 128.945 458.815 128.861H458.812Z" fill="#FC6913"/>
<path d="M450.983 129.096H451.22L451.187 129.332C450.452 129.351 449.806 129.566 449.153 129.577C442.536 129.708 435.955 129.468 429.345 129.559C428.512 130.233 429.128 131.191 428.833 132.038L428.182 133.338C428.018 132.475 428.842 130.154 428.779 129.096C436.177 129.096 443.585 129.096 450.983 129.096Z" fill="#FC4E0C"/>
<path d="M474.882 132.159C474.887 132.232 474.856 132.318 474.849 132.395C474.842 132.472 474.826 132.552 474.817 132.631C474.461 132.365 474.011 132.4 473.564 132.386C468.867 132.243 464.067 132.582 459.379 132.395C459.053 132.381 458.384 132.561 458.349 132.159H474.884H474.882Z" fill="#19008C"/>
<path d="M487.401 132.159H475.355C479.21 131.786 483.495 132.437 487.401 132.159Z" fill="#F8CC8E"/>
<path d="M458.576 128.861C458.655 128.861 458.733 128.861 458.812 128.861C458.789 128.945 458.812 129.045 458.779 129.096H450.986L451.018 128.861H451.255C453.696 128.821 456.135 128.917 458.578 128.861H458.576Z" fill="#960980"/>
<path d="M457.944 133.338L457.911 133.574C456.2 133.261 452.584 133.584 450.588 133.574C450.508 133.574 450.431 133.574 450.351 133.574C450.379 133.401 450.461 133.369 450.62 133.338C452.701 132.956 455.741 133.621 457.944 133.338Z" fill="#FC4E0C"/>
<path d="M457.911 133.574C458.063 133.602 458.169 133.616 458.115 133.81C456.034 133.787 453.935 133.84 451.852 133.815C451.454 133.81 450.78 133.966 450.59 133.574C452.584 133.584 456.203 133.261 457.913 133.574H457.911Z" fill="#7A0A7A"/>
<path d="M457.944 133.338C455.744 133.621 452.703 132.956 450.62 133.338C452.743 132.78 455.039 133.266 457.169 133.119C457.651 133.086 457.754 133.079 458.042 132.631C457.977 132.85 457.998 133.11 457.941 133.338H457.944Z" fill="#FD9411"/>
<path d="M474.915 131.924C474.915 132.001 474.877 132.085 474.882 132.159H458.346C458.389 132.115 458.342 131.935 458.379 131.924H474.915Z" fill="#FC4E0C"/>
<path d="M458.779 129.096C458.646 129.316 458.669 129.297 458.402 129.337C456.394 129.631 453.34 129.278 451.187 129.332L451.22 129.096H458.779Z" fill="#FD9411"/>
<path d="M411.342 60.061L410.048 69.2502H409.812L411.106 60.061H411.342Z" fill="#7A0A7A"/>
<path d="M400.096 56.0548C400.096 56.1318 400.068 56.2135 400.063 56.2906L399.329 58.1746L399.593 56.2906C399.378 56.0408 394.175 56.6548 393.484 56.0571H400.099L400.096 56.0548Z" fill="#FCED04"/>
<path d="M400.129 55.819C400.125 55.896 400.099 55.9777 400.096 56.0548H393.246L393.279 55.819C393.358 55.819 393.435 55.819 393.515 55.819C395.715 55.8306 397.929 55.8096 400.129 55.819Z" fill="#FC6913"/>
<path d="M373.022 65.4797L372.989 65.7155C370.709 65.7085 368.418 65.7202 366.138 65.7155L366.171 65.4797H373.022Z" fill="#FCED04"/>
<path d="M370.068 86.4495C370.148 86.4495 370.225 86.4495 370.304 86.4495L370.272 86.6853C367.973 86.5382 365.401 86.9911 363.22 86.4495C365.499 86.4565 367.788 86.4565 370.07 86.4495H370.068Z" fill="#FCED04"/>
<path d="M358.251 83.1506C358.731 83.1249 363.231 83.0199 363.196 83.2674L358.218 83.3841L358.251 83.1483V83.1506Z" fill="#540D7A"/>
<path d="M369.906 89.2767L369.874 89.5125C367.837 89.2604 364.575 89.9584 362.822 89.2767H369.909H369.906Z" fill="#19008C"/>
<path d="M379.802 49.2236C379.872 49.4431 379.856 49.4244 380.111 49.4641C381.394 49.6602 384.853 49.5808 386.278 49.4711C386.503 49.4547 386.821 49.5154 386.887 49.2236L386.919 48.9878C386.999 48.9878 387.076 48.9878 387.156 48.9878L387.36 49.2236L386.891 52.6112C386.798 52.903 386.515 52.7116 386.388 52.7582L375.081 52.5248L375.278 49.4594C375.484 49.0182 378.29 49.2633 378.985 49.2259C379.334 49.2073 379.699 48.9948 379.832 48.9878C379.832 49.0718 379.783 49.1722 379.8 49.2236H379.802Z" fill="#FDB017"/>
<path d="M375.28 49.4594L375.084 52.5248L386.391 52.7583C385.204 53.2158 384.67 52.7512 383.678 52.7372C382.899 52.7256 382.121 52.7583 381.323 52.7489C379.151 52.7209 376.965 52.868 374.814 52.7606C375.102 51.9108 374.955 50.1575 375.28 49.4617V49.4594Z" fill="#FD9411"/>
<path d="M386.887 49.2236C386.821 49.5154 386.503 49.4547 386.278 49.4711C384.853 49.5808 381.394 49.6602 380.111 49.4641C379.856 49.4244 379.872 49.4431 379.802 49.2236H386.889H386.887Z" fill="#FCED04"/>
<path d="M411.778 43.5668L410.982 49.2236C410.509 49.2353 410.036 49.2049 409.564 49.2236L409.596 48.9878L380.104 48.752L380.834 43.5691H411.778V43.5668Z" fill="#570F7C"/>
<path d="M411.778 43.5668H380.834L380.104 48.7497L409.597 48.9855C402.114 49.0368 394.641 48.9154 387.156 48.9855C387.077 48.9855 386.999 48.9855 386.92 48.9855C384.565 49.0088 382.194 48.8898 379.833 48.9855C379.844 47.2648 380.549 45.1053 380.629 43.3286L411.776 43.5644L411.778 43.5668Z" fill="#540D7A"/>
<path d="M409.597 48.9878L409.564 49.2236C402.149 49.4827 394.772 49.0298 387.36 49.2236L387.156 48.9878C394.641 48.9178 402.114 49.0392 409.597 48.9878Z" fill="#990984"/>
<path d="M386.919 48.9878L386.887 49.2236H379.8C379.783 49.1722 379.833 49.0719 379.833 48.9878C382.192 48.8921 384.565 49.0112 386.919 48.9878Z" fill="#7A0A7A"/>
<path d="M458.609 128.625L458.576 128.861C456.132 128.917 453.696 128.821 451.252 128.861C453.656 128.321 456.193 128.772 458.609 128.625Z" fill="#7A0A7A"/>
<path d="M400.129 55.819C397.929 55.8096 395.715 55.8306 393.515 55.819C395.198 55.4034 397.164 55.5622 398.868 55.5785C399.265 55.5832 399.94 55.4291 400.129 55.819Z" fill="#19008C"/>
<path d="M372.558 68.7786C372.137 73.016 371.109 77.4308 370.728 81.6471C370.686 82.1234 370.838 82.2098 370.868 82.4432C370.878 82.5156 370.831 82.6043 370.836 82.679H363.749L365.944 68.7786C366.934 68.9257 372.357 68.5451 372.558 68.7786Z" fill="#FDB015"/>
<path d="M379.594 65.8859L379.264 68.2603L350.419 68.321L350.749 65.9466L379.594 65.8859Z" fill="#FD6813"/>
<path d="M372.558 68.7786C372.357 68.5451 366.934 68.9257 365.944 68.7786C365.834 68.7622 365.75 68.6572 365.74 68.5428C367.587 68.5428 369.448 68.5148 371.294 68.5381C371.695 68.5428 372.366 68.3864 372.556 68.7786H372.558Z" fill="#FCED04"/>
<path d="M369.703 89.0409H362.852C364.617 88.6254 366.658 88.7818 368.441 88.8005C368.839 88.8051 369.513 88.6511 369.703 89.0409Z" fill="#FCED04"/>
<path d="M377.003 94.2262L377.553 91.1608L377.272 93.9927C378.014 94.0137 378.777 93.96 379.519 93.9927C379.818 94.0044 380.609 93.8456 380.548 94.2285C379.374 94.2145 378.182 94.2402 377.005 94.2285L377.003 94.2262Z" fill="#19008C"/>
<path d="M369.64 91.1631L369.607 91.3989H362.52L362.555 91.1631H369.64Z" fill="#FC6913"/>
<path d="M316.691 118.259C315.991 119.739 316.7 121.422 315.79 122.97C313.461 122.966 311.027 123.019 308.703 122.97C308.801 121.434 309.433 119.723 309.131 118.259C311.647 118.254 314.172 118.268 316.691 118.259Z" fill="#FDB015"/>
<path d="M311.432 148.889C310.079 149.242 307.174 149.333 306 148.889H311.432Z" fill="#F8CC8E"/>
<path d="M349.329 208.5C349.029 208.89 348.4 208.736 348 208.74C346.218 208.761 344.009 208.89 342.305 208.75C341.928 208.719 341.8 208.815 341.535 208.5C344.128 208.505 346.736 208.493 349.329 208.5Z" fill="#F8CC8E"/>
<path d="M353.275 207.319L353.139 208.276H341.8L341.935 207.321L353.275 207.319Z" fill="#540D7A"/>
<path d="M373.696 161.373L373.195 164.921L335.628 164.926L336.126 161.377L373.696 161.373Z" fill="#540D7A"/>
<path d="M346.771 167.973C346.581 168.641 347.007 168.641 347.007 167.973C347.152 167.95 347.323 167.982 347.48 167.973C348.346 168.211 349.673 168.412 350.59 168.454C353.28 168.58 356.058 168.342 358.752 168.444C358.59 169.78 358.237 171.132 358.452 172.425C358.773 172.736 363.931 172.15 364.802 172.451L364.769 172.686C364.126 173.184 364.278 176.011 364.037 176.221H350.572C350.499 176.172 350.45 176.044 350.368 175.985C350.499 174.967 350.665 173.94 350.799 172.922H339.225L339.326 172.215H345.94C346.19 171.44 346.207 168.244 346.773 167.973H346.771Z" fill="#550F7B"/>
<path d="M359.011 164.924H359.248L358.852 167.739H351.529C351.536 166.799 351.913 165.648 351.924 164.926H352.161C353.844 165.092 355.927 164.935 357.717 164.917C358.117 164.912 358.747 165.066 359.011 164.926V164.924Z" fill="#FC6913"/>
<path d="M352.964 160.906H352.491C352.57 159.666 353.743 153.577 353.486 153.115C353.429 153.015 353.343 152.954 353.228 152.928L322.214 152.774C321.966 152.655 321.952 152.319 321.831 152.188L353.68 152.543C354.534 153.066 352.94 159.58 352.961 160.906H352.964Z" fill="#FC4E0C"/>
<path d="M330.329 148.89C330.242 149.097 330.394 149.532 330.097 149.609C329.023 149.805 322.292 149.31 321.962 149.595C321.781 149.751 322.001 151.392 321.428 151.717C321.124 150.848 321.47 150.071 321.557 149.123C324.112 148.918 326.982 149.401 329.493 149.137C329.854 149.1 329.844 149.048 330.095 148.89C330.149 148.854 330.312 148.925 330.331 148.89H330.329Z" fill="#FC4E0C"/>
<path d="M350.707 176.926L346.724 205.201C346.651 205.164 346.408 205.276 346.289 205.178C347.513 195.694 349.001 186.181 350.27 176.693H350.506C350.572 176.753 350.649 176.922 350.71 176.929L350.707 176.926Z" fill="#FC4E0C"/>
<path d="M359.749 161.373H359.985H372.975L352.425 161.375L359.749 161.373Z" fill="#19008C"/>
<path d="M364.238 176.457C363.952 176.707 358.923 176.093 358.064 176.693C357.984 176.693 357.907 176.693 357.827 176.693C357.748 176.693 357.67 176.693 357.591 176.693C357.511 176.693 357.434 176.693 357.354 176.693C355.817 175.922 351.817 177.027 350.572 176.221H364.037C364.278 176.011 364.126 173.184 364.769 172.687L364.238 176.457Z" fill="#19008C"/>
<path d="M351.496 167.973C351.566 168.192 351.55 168.174 351.805 168.213C352.425 168.309 358.422 168.323 358.785 168.209C358.775 168.288 358.761 168.365 358.752 168.444C356.06 168.342 353.28 168.58 350.59 168.454C349.671 168.412 348.344 168.211 347.48 167.973C348.814 167.903 350.165 167.985 351.496 167.973Z" fill="#19008C"/>
<path d="M359.985 161.373H359.749L359.782 161.139L359.814 160.904C360.313 157.374 360.811 153.832 361.308 150.302C361.336 150.535 361.478 150.638 361.448 151.098C361.237 154.397 360.245 158.039 359.983 161.373H359.985Z" fill="#F8CC8E"/>
<path d="M350.569 176.221C351.815 177.024 355.817 175.922 357.352 176.693C355.072 176.693 352.784 176.693 350.502 176.693H350.265C350.296 176.457 350.335 176.221 350.366 175.985C350.448 176.044 350.497 176.174 350.569 176.221Z" fill="#570F7C"/>
<path d="M352.964 160.906H359.814L359.781 161.142H352.458C352.456 161.067 352.486 160.983 352.491 160.906H352.964Z" fill="#FD9411"/>
<path d="M359.781 161.142L359.749 161.375H352.425C352.425 161.3 352.46 161.219 352.458 161.142H359.781Z" fill="#FC6913"/>
<path d="M358.852 167.737C358.841 167.816 358.831 167.893 358.82 167.973C356.381 167.989 353.937 167.95 351.496 167.973C351.48 167.921 351.529 167.821 351.529 167.737H358.852Z" fill="#FDB015"/>
<path d="M353.27 205.673C351.253 205.556 349.029 205.939 347.162 205.437C348.959 205.61 351.227 205.203 352.961 205.43C353.198 205.46 353.226 205.432 353.27 205.673Z" fill="#F8CC8E"/>
<path d="M364.238 176.457C363.976 176.688 363.971 176.669 363.636 176.704C361.974 176.884 359.788 176.679 358.063 176.69C358.925 176.09 363.952 176.704 364.238 176.455V176.457Z" fill="#570F7C"/>
<path d="M364.238 176.457L364.769 172.687L364.802 172.451C365.148 172.57 364.715 175.133 364.601 175.651C364.516 176.034 364.596 176.142 364.238 176.455V176.457Z" fill="#F8CC8E"/>
<path d="M358.784 168.209C358.794 168.129 358.805 168.052 358.817 167.973C358.829 167.893 358.838 167.816 358.85 167.737L359.245 164.921H359.482C359.304 165.332 359.313 168.043 358.782 168.206L358.784 168.209Z" fill="#F8CC8E"/>
<path d="M347.007 167.973C347.007 168.641 346.581 168.641 346.771 167.973C346.825 167.947 346.921 167.987 347.007 167.973Z" fill="#19008C"/>
<path d="M357.354 176.69C357.434 176.69 357.511 176.69 357.591 176.69L357.558 176.926H357.321C355.236 176.756 352.739 177.157 350.707 176.926C350.649 176.919 350.569 176.751 350.504 176.69C352.783 176.69 355.072 176.69 357.354 176.69Z" fill="#FD9411"/>
<path d="M359.011 164.924C358.747 165.066 358.117 164.91 357.717 164.914C355.929 164.933 353.844 165.09 352.161 164.924H359.011Z" fill="#FD9411"/>
<path d="M358.817 167.973C358.805 168.052 358.794 168.129 358.784 168.209C358.422 168.321 352.423 168.309 351.805 168.213C351.55 168.174 351.566 168.192 351.496 167.973C353.937 167.95 356.378 167.989 358.819 167.973H358.817Z" fill="#7A0A7A"/>
<path d="M504 126.741L503.731 128.643H474.196L474.463 126.741H504Z" fill="#540D7A"/>
<path d="M294.533 115.196C293.796 115.196 293.059 115.196 292.322 115.196C291.795 115.359 291.856 117.654 291.652 118.261C292.72 118.261 293.787 118.261 294.854 118.261C294.702 117.253 294.597 116.233 294.533 115.198V115.196Z" fill="#990984"/>
<path d="M296.827 125.625C296.184 124.007 295.676 122.333 295.294 120.615H276.442C276.465 121.658 275.459 122.812 276.165 123.687L292.308 123.678C292.326 125.125 290.576 133.182 291.116 133.81C291.519 134.279 297.234 134.081 301.728 134.016C299.699 131.517 298.054 128.709 296.827 125.627V125.625Z" fill="#FDB015"/>
<path d="M42.7419 23.197H69.7979V36.8663H63.4974L71.9489 59.0665L80.1008 36.8663H74.5V23.197H101.556V36.8663H94.6539L79.202 75.0774H63.9491L48.4949 36.8663H42.7443V23.197H42.7419Z" fill="white"/>
<path d="M107.155 48.8384C107.155 45.0796 107.838 41.5543 109.205 38.2625C110.572 34.9706 112.472 32.0943 114.906 29.6313C117.34 27.1706 120.24 25.2258 123.608 23.7947C126.976 22.3659 130.676 21.6491 134.709 21.6491C138.742 21.6491 142.451 22.3659 145.836 23.7947C149.22 25.2258 152.129 27.1706 154.563 29.6313C156.998 32.092 158.889 34.9683 160.239 38.2625C161.59 41.5543 162.264 45.0796 162.264 48.8384C162.264 52.5972 161.606 56.1295 160.288 59.44C158.971 62.7505 157.105 65.6432 154.687 68.1202C152.27 70.5973 149.37 72.5514 145.986 73.9825C142.601 75.4113 138.842 76.128 134.709 76.128C130.576 76.128 126.765 75.4113 123.381 73.9825C119.997 72.5537 117.104 70.6066 114.705 68.1459C112.304 65.6852 110.445 62.7996 109.13 59.4914C107.812 56.1832 107.155 52.6322 107.155 48.8407V48.8384ZM122.108 48.8384C122.108 50.8018 122.44 52.6042 123.107 54.2501C123.774 55.896 124.682 57.3178 125.832 58.5155C126.983 59.7132 128.315 60.6447 129.831 61.3101C131.348 61.9754 132.975 62.307 134.707 62.307C136.439 62.307 138.114 61.9824 139.633 61.3334C141.15 60.6844 142.468 59.7622 143.584 58.5645C144.701 57.3668 145.576 55.9451 146.21 54.2991C146.842 52.6532 147.16 50.8322 147.16 48.8361C147.16 46.8399 146.844 44.9115 146.21 43.2493C145.576 41.587 144.701 40.1745 143.584 39.0095C142.468 37.8446 141.15 36.9574 139.633 36.3411C138.117 35.727 136.474 35.4352 134.707 35.4679C132.972 35.4352 131.348 35.727 129.831 36.3411C128.315 36.9574 126.981 37.8469 125.832 39.0095C124.682 40.1745 123.772 41.587 123.107 43.2493C122.44 44.9139 122.108 46.7746 122.108 48.8361V48.8384Z" fill="white"/>
<path d="M208.624 41.0547C207.189 39.2594 205.591 37.9053 203.824 36.9901C202.057 36.0749 199.973 35.685 197.572 35.8181C195.639 35.685 193.879 35.9512 192.297 36.6165C190.712 37.2819 189.345 38.2134 188.196 39.4111C187.047 40.6088 186.153 42.0306 185.521 43.6765C184.887 45.3224 184.571 47.1761 184.571 49.2376C184.571 51.068 184.903 52.7956 185.57 54.4252C186.237 56.0548 187.145 57.4602 188.297 58.6416C189.446 59.8229 190.813 60.7451 192.397 61.4104C193.98 62.0758 195.707 62.475 197.574 62.6081C199.14 62.475 200.566 62.1505 201.851 61.6346C203.133 61.1186 204.275 60.4532 205.277 59.6385C206.276 58.8237 207.135 57.9085 207.852 56.8952C208.568 55.882 209.127 54.9248 209.527 54.026L223.28 57.8174C222.714 59.8135 221.738 61.8914 220.354 64.0533C218.971 66.2151 217.171 68.1856 214.953 69.9646C212.734 71.7436 210.101 73.2144 207.051 74.3794C204.001 75.5444 200.526 76.1257 196.624 76.1257C192.723 76.1257 189.006 75.402 185.671 73.9545C182.336 72.507 179.468 70.5366 177.07 68.0432C174.668 65.5498 172.793 62.6221 171.443 59.2626C170.093 55.903 169.418 52.296 169.418 48.4368C169.418 44.5777 170.109 41.0617 171.494 37.7862C172.878 34.5107 174.788 31.6508 177.222 29.2064C179.656 26.762 182.549 24.8593 185.898 23.4935C189.249 22.1301 192.891 21.5161 196.826 21.6468C199.627 21.5137 202.342 21.8289 204.977 22.5947C207.61 23.3604 210.112 24.5067 212.479 26.0359H222.43V41.0524H208.629L208.624 41.0547Z" fill="white"/>
<path d="M242.28 52.2797L242.43 53.8252C242.797 55.3217 243.422 56.6361 244.304 57.7661C245.187 58.896 246.231 59.8439 247.429 60.6097C248.63 61.3754 249.961 61.9498 251.429 62.3303C252.896 62.7132 254.38 62.9046 255.881 62.9046C257.381 62.9046 258.806 62.8136 260.157 62.6291C261.507 62.447 262.815 62.1972 264.082 61.8797C265.348 61.5645 266.581 61.198 267.782 60.7824C268.983 60.3669 270.2 59.9256 271.433 59.461L276.933 69.6868C275.033 70.8517 273.291 71.8416 271.707 72.6541C270.122 73.4689 268.531 74.1436 266.93 74.6736C265.329 75.2059 263.63 75.5957 261.83 75.8455C260.03 76.0953 257.928 76.2191 255.529 76.2191C251.029 76.2191 247.029 75.479 243.527 73.9988C240.026 72.5187 237.084 70.5156 234.701 67.9871C232.316 65.461 230.5 62.5007 229.25 59.1085C228.001 55.7163 227.376 52.1256 227.376 48.3341C227.376 44.5427 228.033 40.9847 229.351 37.6578C230.669 34.3333 232.527 31.4313 234.926 28.9519C237.327 26.4749 240.192 24.5208 243.527 23.0896C246.86 21.6608 250.561 20.9441 254.628 20.9441C258.696 20.9441 262.305 21.6165 265.455 22.9635C268.606 24.3106 271.265 26.1737 273.432 28.5503C275.599 30.9293 277.266 33.7216 278.433 36.9317C279.599 40.1418 280.233 43.5901 280.334 47.2835C280.435 48.1147 280.491 48.9388 280.509 49.7536C280.526 50.5684 280.5 51.4088 280.435 52.2727H242.278L242.28 52.2797ZM234.83 16.2118L248.433 0H260.435L274.139 16.2118H261.886L254.486 8.57981L247.235 16.2118H234.833H234.83ZM254.233 33.4227C252.365 33.4227 250.774 33.6469 249.456 34.0951C248.138 34.5434 247.031 35.1597 246.13 35.9418C245.229 36.7239 244.513 37.6134 243.979 38.6103C243.446 39.6072 243.029 40.6555 242.729 41.7528H264.383C264.149 40.6228 263.817 39.5582 263.384 38.5613C262.951 37.5644 262.35 36.6819 261.584 35.9185C260.817 35.1527 259.843 34.5457 258.659 34.0975C257.474 33.6492 256 33.4251 254.233 33.4251V33.4227Z" fill="white"/>
<path d="M280.514 49.7606C280.498 48.9458 280.439 48.124 280.339 47.2905C280.238 43.5995 279.604 40.1488 278.438 36.9387C277.27 33.7286 275.604 30.9363 273.436 28.5573C271.269 26.1807 268.61 24.3176 265.46 22.9705C262.31 21.6235 258.701 20.9511 254.633 20.9511C250.565 20.9511 246.865 21.6678 243.532 23.0966C240.197 24.5278 237.33 26.4819 234.931 28.9589C232.529 31.436 230.671 34.3379 229.356 37.6648C228.038 40.9917 227.38 44.5497 227.38 48.3411C227.38 52.1326 228.005 55.7233 229.255 59.1155C230.505 62.5077 232.321 65.4681 234.706 67.9941C237.089 70.5226 240.033 72.5257 243.532 74.0058C247.033 75.486 251.033 76.2261 255.534 76.2261C257.935 76.2261 260.035 76.1023 261.835 75.8525C263.634 75.6027 265.336 75.2129 266.935 74.6806C268.535 74.1483 270.127 73.4759 271.712 72.6611C273.294 71.8463 275.037 70.8564 276.938 69.6938L271.438 59.468C270.204 59.9349 268.987 60.3739 267.787 60.7894C266.586 61.205 265.352 61.5715 264.086 61.8867C262.818 62.2042 261.509 62.4517 260.161 62.6361C258.811 62.8182 257.385 62.9093 255.885 62.9093C254.385 62.9093 252.901 62.7178 251.434 62.335C249.966 61.9544 248.632 61.3801 247.434 60.6143C246.233 59.8486 245.191 58.9007 244.309 57.7707C243.424 56.6408 242.799 55.3264 242.434 53.8299L242.285 52.2843H280.441C280.507 51.4205 280.533 50.58 280.516 49.7652L280.514 49.7606ZM242.732 41.7527C243.031 40.6555 243.448 39.6072 243.981 38.6103C244.515 37.6134 245.231 36.7239 246.132 35.9418C247.033 35.1621 248.14 34.5457 249.458 34.0951C250.776 33.6469 252.367 33.4227 254.235 33.4227C256.002 33.4227 257.477 33.6469 258.661 34.0951C259.845 34.5434 260.819 35.1504 261.587 35.9161C262.354 36.6819 262.953 37.5621 263.386 38.559C263.819 39.5559 264.154 40.6204 264.386 41.7504H242.732V41.7527Z" fill="white"/>
<path d="M355.499 221.695H356.791C358.256 219.251 360.119 217.08 362.356 215.212C362.998 214.677 363.674 214.168 364.378 213.683H356.627L355.496 221.695H355.499Z" fill="#540D7A"/>
<path d="M356.393 213.683H364.381C364.701 213.463 365.024 213.246 365.357 213.036L363.105 208.498H353.107C352.95 208.498 352.791 208.498 352.634 208.498C353.146 209.438 351.993 212.231 352.297 212.926C352.671 213.783 355.286 213.65 356.156 213.681C356.234 213.683 356.313 213.681 356.393 213.681V213.683Z" fill="#FDB015"/>
<path d="M363.108 208.5L362.211 206.693L353.373 206.614C353.451 205.988 353.565 205.355 353.638 204.73C353.657 204.573 353.685 204.414 353.703 204.258L355.239 192.643L354.558 191.268L355.508 190.619L357.319 176.929C355.234 176.758 352.737 177.16 350.705 176.929L346.722 205.203C346.869 205.283 346.951 205.383 347.162 205.439C348.959 205.612 351.227 205.206 352.962 205.432C353.198 205.463 353.226 205.435 353.27 205.675C353.329 205.997 353.055 206.691 353.072 207.09C349.214 207.099 345.353 207.083 341.495 207.09C341.437 207.629 341.191 208.096 341.533 208.505C344.126 208.509 346.733 208.498 349.327 208.505C350.42 208.507 351.517 208.505 352.634 208.505C352.791 208.505 352.95 208.505 353.107 208.505H363.108V208.5ZM341.8 208.276L341.935 207.319H353.275L353.242 207.557L353.142 208.276H341.802H341.8Z" fill="#FC6913"/>
<path d="M361.237 204.729H354.111H353.874H353.638C353.563 205.355 353.451 205.988 353.373 206.614L362.211 206.693L361.237 204.729Z" fill="#FDB015"/>
<path d="M451.852 133.812C451.454 133.808 450.78 133.964 450.59 133.572C450.511 133.572 450.433 133.572 450.354 133.572L448.091 148.901L447.779 149.088L399.245 149.242C398.978 149.354 398.868 149.639 398.695 149.828C398.536 150.001 398.489 150.101 398.393 150.3C398.304 150.486 397.95 150.734 398.028 151.098C396.871 160.028 395.542 168.96 394.236 177.893C397.073 177.965 399.809 178.229 402.421 178.675C403.549 170.368 404.15 161.835 405.695 153.706L406.027 152.996L453.661 152.903C454.908 152.702 455.082 152.272 455.421 151.243L456.418 144.174C456.903 140.73 457.221 137.212 458.115 133.805C456.034 133.782 453.935 133.836 451.852 133.81V133.812Z" fill="#7A0A7A"/>
<path d="M306.409 141.005L305.356 148.418C305.48 148.654 305.749 148.796 305.997 148.89C307.207 149.039 306.765 148.668 307.093 148.654C308.293 148.607 310.549 148.883 311.539 148.663C311.774 148.612 311.799 148.376 311.886 148.198L312.462 144.526C310.29 143.539 308.268 142.362 306.407 141.005H306.409Z" fill="#FDB017"/>
<path d="M404.848 112.677L412.543 58.0532H370.616L362.92 112.677C362.92 112.677 362.448 117.89 361.963 120.278C361.546 122.333 360.954 124.331 360.187 126.26C358.508 130.476 356.086 134.223 352.987 137.398C349.879 140.585 346.127 143.118 341.835 144.932C337.535 146.749 332.758 147.668 327.64 147.668C322.521 147.668 317.693 146.749 313.393 144.932C311.315 144.054 309.365 143.006 307.556 141.802L306.531 149.076H357.79L349.963 204.631H361.191L354.56 191.266L358.076 188.861C363.232 185.331 368.713 182.595 374.368 180.722C380.088 178.829 386.222 177.869 392.598 177.869C393.63 177.869 394.646 177.9 395.652 177.949L399.72 149.079H453.481L458.609 112.677H404.848Z" fill="white"/>
<path d="M330.514 147.573L330.329 148.89C330.533 148.404 330.671 147.986 330.764 147.552C330.68 147.559 330.598 147.566 330.514 147.573Z" fill="#FC4E0C"/>
<path d="M360.187 149.114L339.302 149.09C339.221 148.955 339.361 148.742 339.338 148.654C339.101 147.739 339.331 147.043 339.466 146.062H338.736C338.474 146.144 338.207 146.221 337.943 146.296H339.197C339.118 147.573 338.132 149.595 340.03 149.595H360.936L359.578 160.904H359.814C360.313 157.374 360.811 153.832 361.308 150.302C361.207 149.478 361.303 149.328 360.187 149.114Z" fill="#FC4E0C"/>
<path d="M339.197 146.296H337.943C335.654 146.942 333.255 147.363 330.764 147.552C330.671 147.984 330.533 148.402 330.329 148.89C330.242 149.097 330.395 149.532 330.097 149.609C329.023 149.805 322.292 149.31 321.962 149.595C321.782 149.751 322.002 151.392 321.428 151.717C321.527 151.999 321.683 152.027 321.833 152.188L353.682 152.543C354.537 153.066 352.943 159.58 352.964 160.906H359.578L360.936 149.597H340.03C338.132 149.597 339.118 147.575 339.197 146.298V146.296Z" fill="#FD6813"/>
<path d="M363.433 91.6347L362.623 92.209C361.998 95.6456 361.661 99.199 361.24 102.72C362.204 105.967 362.691 109.38 362.691 112.908C362.691 113.144 362.686 113.38 362.684 113.615C363.91 113.664 365.221 113.699 365.858 113.557C366.134 113.494 366.171 113.102 366.279 112.906L369.34 91.6347C367.398 91.546 365.368 91.7561 363.435 91.6347H363.433Z" fill="#FDB015"/>
<path d="M361.24 102.717C361.661 99.1966 361.998 95.6433 362.623 92.2067L363.433 91.6324C363.108 91.6114 362.567 91.7678 362.52 91.3966L362.553 91.1608H362.317C361.834 94.6114 361.345 98.0667 360.858 101.522C360.992 101.919 361.121 102.316 361.24 102.717Z" fill="#FD9411"/>
<path d="M362.82 89.2767C362.663 89.216 362.469 89.2324 362.38 89.0409C359.382 89.0409 356.381 89.0129 353.378 89.0199C354.026 89.7086 354.644 90.423 355.232 91.1631C357.516 91.1631 359.8 91.1631 362.082 91.1631C362.382 90.7732 363.012 90.9273 363.412 90.9227C365.502 90.9017 367.587 90.9483 369.675 90.9273L369.874 89.5125C367.838 89.2604 364.575 89.9585 362.822 89.2767H362.82Z" fill="#540D7A"/>
</g>
<defs>
<clipPath id="clip0_1_48">
<rect width="504" height="290" fill="white"/>
</clipPath>
</defs>
</svg>
